<svg width="1480" height="237" fill="none" xmlns="http://www.w3.org/2000/svg"><path d="M101.987.36C44.419.36.2 44.023.2 101.312s44.22 100.953 101.787 100.953c57.568 0 101.786-43.665 101.786-100.953C203.773 44.024 159.555.36 101.987.36zm0 45.053c31.148 0 53.952 23.361 53.952 55.9s-22.8 55.9-53.952 55.9c-31.152 0-53.952-23.361-53.952-55.9s22.804-55.9 53.952-55.9zM411.8 202.265c47.834 0 84.266-30.035 94.834-72.307h-50.619c-7.787 16.964-23.639 27.254-44.219 27.254-32.26 0-53.118-23.361-53.118-55.9s20.858-55.9 53.118-55.9c20.58 0 36.432 10.29 44.219 27.254h50.615C496.062 30.394 459.63.359 411.796.359c-58.4 0-100.952 43.663-100.952 100.952s42.55 100.954 100.956 100.954zM676.553 3.975H523.317v45.053h52.84v149.621h47.278V49.028h53.118V3.975zm203.017 0h-52.562l-37.822 77.313-38.657-77.313h-53.118l65.633 128.763-32.817 65.911h52.84L879.57 3.975zM1050.6 153.6V3.975H920.73l-20.58 129.876c-1.669 10.012-3.894 16.13-7.231 19.745h-27.254v82.6h47.278v-37.547h118.197v37.545h47.28V153.6h-27.82zm-104.007-15.022l14.183-89.55h42.554V153.6h-59.796c1.113-4.732 2.225-9.738 3.059-15.022zm273.377-134.6l-72.86 122.642 3.61-41.16V3.975h-47.27v194.674h53.67L1230.26 76l-3.89 41.16v81.489h47.28V3.975l-53.68.003zm206.36 0l-72.87 122.642 3.62-41.16V3.975h-47.28v194.674h53.67L1436.62 76l-3.9 41.16v81.489H1480V3.975l-53.67.003z" fill="#F7F7F7"/></svg>