<svg width="95" height="95" fill="none" xmlns="http://www.w3.org/2000/svg"><path fill-rule="evenodd" clip-rule="evenodd" d="M47.505-.002a47.518 47.518 0 0147.5 47.5 47.518 47.518 0 01-47.5 47.5 47.518 47.518 0 01-47.5-47.5 47.518 47.518 0 0147.5-47.5z" fill="#F7F7F8"/><path fill-rule="evenodd" clip-rule="evenodd" d="M27.755 33.531a4.002 4.002 0 01.937-2.937l5.813-5.813a4.076 4.076 0 013.031-1.031h25.94a3.784 3.784 0 013.781 3.781v39.951a3.784 3.784 0 01-3.781 3.781h-31.94a3.784 3.784 0 01-3.781-3.781V33.531z" fill="#F7F7F8" stroke="#1A41DE" stroke-width="1.5" stroke-miterlimit="79.84" stroke-linejoin="round"/><path d="M36.255 39.75h23m-23 4h23m-23.004 8h12.007m-12.003-4h23m-16.011-15h9.017m-16.01 26h7.007m-6.001-34.028v4.76a3.784 3.784 0 01-3.78 3.781h-4.594" stroke="#1A41DE" stroke-width="1.5" stroke-miterlimit="79.84" stroke-linecap="round" stroke-linejoin="round"/><path clip-rule="evenodd" d="M57.997 56.77a4.24 4.24 0 014.236 4.236 4.24 4.24 0 01-4.236 4.236 4.24 4.24 0 01-4.236-4.236 4.239 4.239 0 014.236-4.236z" stroke="#1A41DE" stroke-width="1.5" stroke-miterlimit="79.84"/></svg>