<svg width="95" height="95" fill="none" xmlns="http://www.w3.org/2000/svg"><path fill-rule="evenodd" clip-rule="evenodd" d="M47.504-.002a47.518 47.518 0 0147.5 47.5 47.518 47.518 0 01-47.5 47.5 47.518 47.518 0 01-47.5-47.5 47.518 47.518 0 0147.5-47.5z" fill="#F7F7F8"/><path d="M62.05 28.747h4.433a3.784 3.784 0 013.78 3.781v29.94a3.784 3.784 0 01-3.78 3.781h-37.95a3.784 3.784 0 01-3.781-3.78v-29.94a3.784 3.784 0 013.781-3.782h4.517" stroke="#1A41DE" stroke-width="1.5" stroke-miterlimit="79.84" stroke-linecap="round" stroke-linejoin="round"/><path fill-rule="evenodd" clip-rule="evenodd" d="M43.504 38.744a1.76 1.76 0 011.757 1.756 1.759 1.759 0 01-1.757 1.756 1.759 1.759 0 01-1.757-1.756 1.76 1.76 0 011.757-1.756zm8 0a1.76 1.76 0 011.757 1.756 1.759 1.759 0 01-1.757 1.756 1.759 1.759 0 01-1.757-1.756 1.76 1.76 0 011.757-1.756zm8 0a1.76 1.76 0 011.757 1.756 1.759 1.759 0 01-1.757 1.756 1.759 1.759 0 01-1.757-1.756 1.76 1.76 0 011.757-1.756zm-24 8a1.76 1.76 0 011.757 1.756 1.759 1.759 0 01-1.757 1.756 1.759 1.759 0 01-1.757-1.756 1.76 1.76 0 011.757-1.756zm8 0a1.76 1.76 0 011.757 1.756 1.759 1.759 0 01-1.757 1.756 1.759 1.759 0 01-1.757-1.756 1.76 1.76 0 011.757-1.756zm8 0a1.76 1.76 0 011.757 1.756 1.759 1.759 0 01-1.757 1.756 1.759 1.759 0 01-1.757-1.756 1.76 1.76 0 011.757-1.756zm8 0a1.76 1.76 0 011.757 1.756 1.759 1.759 0 01-1.757 1.756 1.759 1.759 0 01-1.757-1.756 1.76 1.76 0 011.757-1.756zm-24 8a1.76 1.76 0 011.757 1.756 1.759 1.759 0 01-1.757 1.756 1.759 1.759 0 01-1.757-1.756 1.76 1.76 0 011.757-1.756zm8 0a1.76 1.76 0 011.757 1.756 1.759 1.759 0 01-1.757 1.756 1.759 1.759 0 01-1.757-1.756 1.76 1.76 0 011.757-1.756zm8 0a1.76 1.76 0 011.757 1.756 1.759 1.759 0 01-1.757 1.756 1.759 1.759 0 01-1.757-1.756 1.76 1.76 0 011.757-1.756z" fill="#F7F7F8" stroke="#1A41DE" stroke-width="1.5" stroke-miterlimit="79.84" stroke-linejoin="round"/><path d="M35.753 25.74v5.52m23.5-5.51v5.52m-20.508-2.523h17.517" stroke="#1A41DE" stroke-width="1.5" stroke-miterlimit="79.84" stroke-linecap="round" stroke-linejoin="round"/></svg>