<svg width="342" height="46" fill="none" xmlns="http://www.w3.org/2000/svg"><path fill-rule="evenodd" clip-rule="evenodd" d="M189.127 22.283V.166h4.662v17.627h17.648V.166h4.662V22.45h-26.972v-.167zm-188.473 0V0h26.972v4.49H5.154v13.137h22.31v4.49H.654v.166zm31.3 0V0h26.973v22.117H31.954v.166zm31.468 0V.166h26.806v22.117h-4.662V4.656H68.085v17.627h-4.663zm116.547 0V13.8h-17.648v8.481h-4.667V.166h26.806v9.146h-4.5V13.8h4.5v8.481l-4.491.002zm40.458 0V0h26.972v4.49h-22.31v13.137h22.31v4.49h-26.971l-.001.166zm62.769 0V0h26.972v22.117h-26.972v.166zm53.778 0V13.8h-17.648v8.481h-4.662V.166h26.806v9.146h-4.5V13.8h4.5v8.481l-4.496.002zm-242.084 0v-4.49h22.31V13.8H94.724V.166h26.972v4.49h-22.31v4.656h22.31v12.969l-26.806.002zm42.456 0V4.656h-11.155V.166h26.806v4.49h-11.155v17.627h-4.496zm125.7 0V4.656h-11.151V.166h26.806v4.49h-11.155v17.627h-4.5zm-208.781-4.49V4.656H36.617v13.137h17.648zm251.241 0V4.656h-17.652v13.137h17.652zM179.969 9.312V4.656h-17.648v4.656h17.648zm157.001 0l-.001-4.656h-17.643v4.656h17.644z" fill="#333"/><path d="M341.469 30.701H189.31v15.3h152.159V30.7z" fill="#333"/><path d="M292.912 38.517a3.775 3.775 0 011.102-2.724 3.76 3.76 0 012.723-1.101 3.657 3.657 0 012.827 1l-1 1.164a2.271 2.271 0 00-1.829-.665 2.335 2.335 0 000 4.656 2.034 2.034 0 001.5-.5v-1h-1.663v-1.33h3.16v3.16a4.882 4.882 0 01-3.16 1.164 3.54 3.54 0 01-3.66-3.824zm8.98-3.659h3.326a3.702 3.702 0 012.162.665 2.54 2.54 0 01.665 1.663 2.43 2.43 0 01-1.5 2.328l1.829 2.66h-1.829l-1.663-2.327h-1.164v2.328h-1.663v-7.317h-.163zm3.326 3.658c.832 0 1.164-.5 1.164-1 0-.665-.5-1-1.33-1h-1.66v2.162h1.829l-.003-.162zm4.49.001a3.774 3.774 0 011.102-2.724 3.75 3.75 0 012.723-1.101 3.664 3.664 0 013.825 3.825 3.826 3.826 0 01-6.53 2.704 3.826 3.826 0 01-1.12-2.704zm6.153 0a2.23 2.23 0 00-1.308-2.127 2.244 2.244 0 00-.854-.201 2.14 2.14 0 00-2.162 2.328 2.164 2.164 0 001.295 2.148 2.173 2.173 0 002.456-.512 2.158 2.158 0 00.573-1.636zm3.492.665v-4.157h1.663v4.157c0 1.164.665 1.829 1.5 1.829 1 0 1.5-.665 1.5-1.83v-4.156h1.663v4.157c0 2.162-1.164 3.326-3.16 3.326-2.002-.166-3.166-1.164-3.166-3.326zm8.481-4.324h2.993a2.549 2.549 0 012.595 1.466c.148.323.227.673.232 1.028 0 1.663-1.33 2.494-2.993 2.494h-1.164v2.162h-1.663v-7.15zm2.993 3.825a1.174 1.174 0 100-2.328h-1.164v2.162h1.164v.166z" fill="#fff"/><path d="M.82 38.517a3.667 3.667 0 013.825-3.825 3.726 3.726 0 012.827 1.164l-.831 1a3.068 3.068 0 00-2-.831 2.6 2.6 0 00-2.494 2.661 2.492 2.492 0 002.494 2.661 2.926 2.926 0 002.162-1l.831.831a3.894 3.894 0 01-2.993 1.33A4.014 4.014 0 01.82 38.517zm10.643-2.495H9.135v-1.164h5.987v1.164h-2.329v6.153h-1.33v-6.153zm5.986-1.164h2.827a2.545 2.545 0 012.827 2.494c0 1.663-1.33 2.494-2.993 2.494h-1.5v2.328h-1.327v-7.316h.166zm2.661 3.825c1 0 1.5-.5 1.5-1.33a1.356 1.356 0 00-1.5-1.33h-1.5v2.661l1.5-.001zm4.823-.166a3.868 3.868 0 013.825-3.825 3.667 3.667 0 013.825 3.825 3.868 3.868 0 01-5.299 3.551 3.76 3.76 0 01-2.351-3.551zm6.319 0a2.5 2.5 0 10-2.494 2.661 2.49 2.49 0 002.494-2.661zm3.825-3.659h1.33v5.321l3.659-5.32h1.164v7.316H39.9v-5.317l-3.658 5.321h-1.165v-7.32zm10.643 1.164h-2.33v-1.164h5.987v1.164H47.05v6.153h-1.33v-6.153zm5.82-1.164h5.488v1.164H52.87v1.83h3.658v1.163H52.87v2h4.157v1.164H51.54v-7.32zm6.984 7.317l.166-1h.5c.665 0 1.5-.5 1.5-4.823v-1.494h4.989v7.317h-1.335v-6.153H61.85v.665c0 4.656-.831 5.654-2.328 5.654a2.108 2.108 0 00-.998-.166zm9.811-7.317h1.33v2.661h1.663c1.663 0 2.827.831 2.827 2.328 0 1.497-1 2.328-2.827 2.328h-2.993v-7.317zm2.993 6.153c1 0 1.5-.5 1.5-1.33 0-.83-.5-1.164-1.5-1.164h-1.663v2.494h1.663zm4.99-6.153h1.33v2.993h3.492v-2.993h1.33v7.317h-1.33v-3.16h-3.492v3.16h-1.33v-7.317zm11.474 0h1.164l3.16 7.317h-1.33l-.665-1.829h-3.493l-.831 1.83h-1.331l3.326-7.318zm1.829 4.49l-1.33-2.99-1.33 2.993 2.66-.003zm6.157 0a2.154 2.154 0 01-1.663-2.162c0-1.5 1-2.328 2.661-2.328h3.326v7.317h-1.33v-2.494h-1.668l-1.826 2.494h-1.5l2-2.827zm2.827-.83v-2.496h-1.834c-1 0-1.5.5-1.5 1.33a1.36 1.36 0 001.5 1.33H98.6l.005-.165zm8.144-3.66h1.33v3.658l3.493-3.658h1.5l-2.993 3.16 3.16 4.157h-1.5l-2.494-3.326-1.33 1.164v2.162h-1.166v-7.317zm7.816 3.659a3.867 3.867 0 013.825-3.825 3.668 3.668 0 013.825 3.825 3.867 3.867 0 01-3.825 3.825 3.759 3.759 0 01-3.825-3.825zm6.319 0a2.498 2.498 0 00-4.319-1.549 2.508 2.508 0 00-.47 2.704 2.5 2.5 0 002.295 1.506 2.49 2.49 0 002.494-2.661zm3.659-3.659h1.33l2.162 3.492 2.162-3.492h1.33v7.317h-1.33v-5.317l-2.328 3.492-2.329-3.492v5.155h-1.33v-7.155h.333zm9.977 0h5.987v7.317h-1.33v-6.153h-3.327v6.153h-1.33v-7.317zm11.309 0h1.164l3.16 7.317h-1.33l-.665-1.829h-3.492l-.831 1.83h-1.332l3.326-7.318zm1.829 4.49l-1.33-2.993-1.33 2.993h2.66zm4.822-4.49h1.33v2.993h3.492v-2.993h1.33v7.317h-1.33v-3.16h-3.492v3.16h-1.33v-7.317zm8.814 0h1.33v5.321l3.658-5.32h1.164v7.316h-1.33v-5.317l-3.658 5.321h-1.164v-7.32zm10.315 4.49a2.153 2.153 0 01-1.663-2.162c0-1.5 1-2.328 2.661-2.328h3.326v7.317h-1.33v-2.494h-1.663l-1.831 2.494h-1.5l2-2.827zm2.993-.83v-2.496h-1.833c-1 0-1.5.5-1.5 1.33a1.355 1.355 0 00.943 1.273c.18.057.369.077.557.057h1.829l.004-.165z" fill="#333"/></svg>