<svg width="329" height="46" fill="none" xmlns="http://www.w3.org/2000/svg"><path fill-rule="evenodd" clip-rule="evenodd" d="M0 .002v41.85l10.108-10.35V6.967h10.047v13.99L30.14 10.48V4.625A4.5 4.5 0 0025.517.002H0zm10.108 35.251L40.308.002l-30.2 46v-10.75zM236.532 19.97h-4.068l1.356-5.177h2.712v-7.15h-11.4l-6.844 25.085h10.786l2.219-8.321 4.992 8.32h.247V19.97zm1.664 0h-1.726v12.758h12.512l-7.4-10.17c1.193.083 2.391.042 3.575-.123a7.469 7.469 0 006.04-5.732c1.109-5.054.431-9.122-5.054-9.122h-9.677v7.15h2.4c3.082.062 1.541 5.239-.678 5.239h.008z" fill="#333"/><path fill-rule="evenodd" clip-rule="evenodd" d="M225.129 7.626h21.018c5.486 0 6.164 4.068 5.054 9.122a7.481 7.481 0 01-6.04 5.732 17.2 17.2 0 01-3.575.123l7.4 10.17h-12.762l-4.936-8.382-2.219 8.32h-10.781l6.841-25.085zm13.067 12.327h-5.794l1.356-5.177h5.177c3.02 0 1.479 5.177-.74 5.177h.001zM106.044 7.632h12.142l2.281 14.238 3.947-14.238h10.848l-6.842 25.086h-11.9l-3.205-12.2-3.39 12.2H99.144l6.9-25.086zm183.217 0h12.142l2.281 14.238 3.947-14.238h10.848l-6.9 25.086h-11.837l-3.205-12.2-3.39 12.2h-10.786l6.9-25.086zm-115.606 0h-5.116l-14.915 25.086h11.834l2.1-3.452h6.163v-5.917h-2.65l2.65-4.561V7.632h-.066zm13.436 0h-13.436v11.156l2.65-4.561v9.122h-2.65v5.917h2.65v3.452h10.786V7.632z" fill="#333"/><path fill-rule="evenodd" clip-rule="evenodd" d="M176.305 14.227l-5.362 9.122h5.362v-9.122zm10.786-6.595h-18.552l-14.916 25.086h11.834l2.1-3.452h8.814v3.452h10.782V7.632h-.062zm79.368 0h-5.116l-14.977 25.086h11.9l2.1-3.452h6.164v-5.917h-2.664l2.65-4.561V7.632h-.057zm13.436 0h-13.436v11.156l2.712-4.561v9.122h-2.712v5.917h2.707v3.452h10.663V7.632h.066z" fill="#333"/><path fill-rule="evenodd" clip-rule="evenodd" d="M269.166 14.227l-5.424 9.122h5.424v-9.122zm10.729-6.595h-18.552l-14.977 25.086h11.9l2.1-3.452h8.875v3.452h10.663l-.009-25.086zM58.307 19.97h-4.068l1.356-5.177h2.712v-7.15h-11.4l-6.844 25.085h10.786l2.157-8.321 4.992 8.32h.247V19.97h.062zm1.664 0h-1.726v12.758h12.512l-7.4-10.17c1.193.083 2.39.042 3.575-.123a7.473 7.473 0 006.04-5.732c1.109-5.054.431-9.122-5.054-9.122h-9.611v7.15h2.4c3.02.062 1.418 5.239-.74 5.239h.004z" fill="#333"/><path fill-rule="evenodd" clip-rule="evenodd" d="M46.905 7.626h21.017c5.486 0 6.164 4.068 5.054 9.122a7.481 7.481 0 01-6.04 5.732 17.2 17.2 0 01-3.575.123l7.4 10.17H58.063l-4.992-8.321-2.157 8.32H40.063l6.842-25.146zm13.066 12.327h-5.794l1.356-5.177h5.177c3.02 0 1.419 5.177-.739 5.177zM194.793 7.632h10.909l-2.465 9.492 7.828-9.492h13.5l-12.576 13.683 5.177 11.4h-11.772l-3.7-9.37-2.527 9.37h-11.216l6.842-25.083z" fill="#333"/><path fill-rule="evenodd" clip-rule="evenodd" d="M77.061 7.632h25.763l-2.219 8.074h-14.85l-.8 2.835h14.854l-1.418 5.3H83.474l-.616 2.342h14.854l-1.787 6.533H70.161l6.9-25.084zm59.819 0h25.27l-2.342 8.382h-6.78l-4.561 16.7h-11.156l4.561-16.7h-7.211l2.219-8.382zm187.517 5.994a3.723 3.723 0 01-3.76-3.7 3.773 3.773 0 013.76-3.76v-.74a4.47 4.47 0 100 8.937v-.737zm0-7.458a3.763 3.763 0 013.7 3.758 3.662 3.662 0 01-1.075 2.625 3.67 3.67 0 01-2.625 1.075v.74a4.471 4.471 0 004.402-4.469 4.472 4.472 0 00-4.402-4.468v.739z" fill="#333"/><path fill-rule="evenodd" clip-rule="evenodd" d="M324.397 5.426a4.513 4.513 0 014.438 4.5 4.469 4.469 0 11-4.438-4.5zm0 .74a3.76 3.76 0 013.7 3.76 3.662 3.662 0 01-1.075 2.625 3.67 3.67 0 01-2.625 1.075 3.723 3.723 0 01-3.76-3.7 3.773 3.773 0 013.76-3.76z" fill="#333"/><path fill-rule="evenodd" clip-rule="evenodd" d="M324.396 9.555l.062.986a1.197 1.197 0 00-.493-.062h-.185v2.034h-1.233v-4.93h1.911v.863h-.678V9.62h.616v-.066zm.062 0a.718.718 0 00.431-.123.563.563 0 00.185-.431.48.48 0 00-.185-.431.561.561 0 00-.431-.185V7.52c.5-.035.998.095 1.417.37a1.23 1.23 0 01.493 1.048c.013.26-.051.517-.185.74-.187.212-.419.38-.678.493a.617.617 0 01.308.247c.123.062.185.247.308.37l.8 1.726h-1.417l-.678-1.418a.759.759 0 00-.308-.493c-.062 0-.062 0-.062-.062l.002-.987z" fill="#333"/><path fill-rule="evenodd" clip-rule="evenodd" d="M322.608 12.452V7.52h1.849a2.37 2.37 0 011.479.37 1.23 1.23 0 01.493 1.048c.013.26-.052.517-.185.74-.187.212-.419.38-.678.493a.617.617 0 01.308.247c.123.062.185.247.308.37l.8 1.726h-1.418l-.678-1.418a.759.759 0 00-.308-.493 1.23 1.23 0 00-.555-.123h-.185v2.034h-1.23v-.063zm1.787-2.9a.801.801 0 00.493-.123.563.563 0 00.185-.431.48.48 0 00-.185-.431.608.608 0 00-.493-.185h-.616v1.17h.616z" fill="#333"/></svg>