<svg width="300" height="46" fill="none" xmlns="http://www.w3.org/2000/svg"><path d="M154.519 18.253h1.248l-4.128-10.9h-1.028l-4.112 10.9h1.246l1.184-3.16h4.408l1.182 3.16zm-5.169-4.282l1.775-4.829 1.794 4.83h-3.569zm16.449 4.282l-2.462-4.36a3.34 3.34 0 002.2-3.162 3.327 3.327 0 00-3.427-3.38h-4.084v10.902h1.122v-4.142h3.021l2.337 4.142h1.293zm-6.651-9.782h2.96a2.192 2.192 0 012.259 2.26 2.2 2.2 0 01-.641 1.617 2.201 2.201 0 01-1.618.641h-2.96V8.471zm18.3 4.19h-4.529v1.122h3.411v1.854a4.358 4.358 0 01-3.38 1.636 4.269 4.269 0 01-3.969-2.772 4.29 4.29 0 01-.268-1.683 4.273 4.273 0 014.237-4.455 4.19 4.19 0 013.5 1.87l1-.484a5.241 5.241 0 00-4.5-2.492 5.42 5.42 0 00-5.39 5.561 5.418 5.418 0 003.292 5.127 5.42 5.42 0 002.098.434 5.259 5.259 0 004.5-2.492l-.002-3.226zm3.538 4.472v-3.77h5.545v-1.12h-5.545v-3.77h6.033v-1.12h-7.15v10.9h7.243v-1.12h-6.126zm15.857-9.78v8.816l-6.137-8.816h-1.028v10.9h1.121V9.407l6.137 8.846h1.028v-10.9h-1.121zm11.122 0h-7.9v1.122h3.4v9.778h1.122V8.471h3.38l-.002-1.118zm9 0v6.62c0 2.134-1.262 3.287-2.882 3.287s-2.972-1.107-2.972-3.289V7.353h-1.121v6.573c0 3.115 1.854 4.455 4.1 4.455 2.246 0 4-1.4 4-4.5V7.353h-1.125zm13.505 0l-4.312 6.79-4.299-6.79h-1.04v10.9h1.137V9.516l3.813 6.012h.763l3.847-6.013v8.738h1.14v-10.9h-1.049zm-83.426 19.468v10.9h1.122v-10.9h-1.122zm10.935 0v8.816l-6.137-8.816h-1.028v10.9h1.121v-8.844l6.137 8.848h1.028V26.821h-1.121zm10.935 0v8.816l-6.137-8.816h-1.028v10.9h1.122v-8.844l6.137 8.848h1.028V26.821h-1.122zm8.91-.093a5.344 5.344 0 00-5.3 5.561 5.282 5.282 0 00.325 2.106 5.282 5.282 0 004.963 3.452 5.292 5.292 0 004.964-3.452c.25-.673.361-1.39.325-2.106a5.328 5.328 0 00-3.203-5.12 5.326 5.326 0 00-2.079-.44h.005zm0 10.016a4.204 4.204 0 01-3.026-1.34 4.192 4.192 0 01-1.117-3.115 4.148 4.148 0 118.271 0 4.2 4.2 0 01-4.133 4.455h.005zm14.72-9.922l-3.425 9.112-3.429-9.113h-1.262l4.175 10.9h1.028l4.159-10.9-1.246.001zm9.268 10.9h1.246l-4.128-10.9h-1.028l-4.112 10.9h1.246l1.183-3.159h4.408l1.185 3.16zm-5.171-4.284l1.778-4.825 1.791 4.83-3.569-.005zm14.627-6.62h-7.9v1.125h3.4v9.782h1.122v-9.782h3.38l-.002-1.125zm2.259 0v10.9h1.122V26.821l-1.122-.003zm8.91-.093a5.344 5.344 0 00-5.3 5.561 5.282 5.282 0 00.325 2.106 5.282 5.282 0 004.963 3.452 5.292 5.292 0 004.964-3.452c.25-.673.361-1.39.325-2.106a5.338 5.338 0 00-1.461-3.898 5.334 5.334 0 00-3.818-1.66l.002-.003zm0 10.016a4.204 4.204 0 01-3.026-1.34 4.192 4.192 0 01-1.117-3.115 4.148 4.148 0 118.271 0 4.199 4.199 0 01-4.13 4.458l.002-.003zm14.937-9.92v8.816l-6.138-8.816h-1.028v10.9h1.122v-8.844l6.137 8.848h1.028V26.821h-1.121zm18.49 5.312h-4.533v1.12h3.411v1.854a4.358 4.358 0 01-3.38 1.636 4.269 4.269 0 01-3.969-2.772 4.29 4.29 0 01-.268-1.683 4.273 4.273 0 014.237-4.455 4.192 4.192 0 013.5 1.87l1-.484a5.242 5.242 0 00-4.5-2.492 5.42 5.42 0 00-5.39 5.561 5.418 5.418 0 003.292 5.127 5.42 5.42 0 002.098.434 5.259 5.259 0 004.5-2.492l.002-3.224zm10.265 5.592l-2.461-4.36a3.377 3.377 0 00.955-5.78 3.376 3.376 0 00-2.186-.763h-4.081v10.9h1.122v-4.14h3.022l2.337 4.143h1.292zm-6.652-9.782h2.96a2.192 2.192 0 012.259 2.26 2.2 2.2 0 01-.641 1.617 2.201 2.201 0 01-1.618.641h-2.96v-4.518zm13.708-1.215a5.344 5.344 0 00-5.3 5.561 5.282 5.282 0 00.325 2.106 5.282 5.282 0 004.963 3.452 5.292 5.292 0 004.964-3.452c.25-.673.361-1.39.325-2.106a5.341 5.341 0 00-1.46-3.9 5.326 5.326 0 00-3.817-1.66zm0 10.016a4.204 4.204 0 01-3.026-1.34 4.192 4.192 0 01-1.117-3.115 4.148 4.148 0 118.271 0 4.193 4.193 0 01-2.483 4.092 4.19 4.19 0 01-1.645.363zm14.673-9.922v6.62c0 2.134-1.262 3.287-2.882 3.287s-2.975-1.106-2.975-3.287v-6.62h-1.122v6.572c0 3.115 1.854 4.455 4.1 4.455 2.246 0 4-1.4 4-4.5v-6.528l-1.121.001zm7.944 0h-4.1v10.9h1.137v-4.14h2.96a3.356 3.356 0 003.411-3.38 3.305 3.305 0 00-.98-2.42 3.318 3.318 0 00-2.428-.96zm0 5.64h-2.96v-4.519h2.96a2.179 2.179 0 012.243 2.26 2.2 2.2 0 01-.635 1.612 2.192 2.192 0 01-1.608.645v.001zM129.482 46h-.974V1.217h.974V46zm-28.61-27.149h8.66v25.113h-8.66V40.5a22.318 22.318 0 111.532-35.17l-6.661 6.594a13.243 13.243 0 00-7.86-2.6 12.633 12.633 0 00-9.126 3.8A12.99 12.99 0 0087.882 35.3a13.179 13.179 0 009.192-3.8 15.399 15.399 0 003-4h-9.992v-8.66l10.79.011zm-.067 8.66l.067.066v-.066h-.067zM50.209.666h10.392v43.3H50.209V.666z" fill="#333"/><path fill-rule="evenodd" clip-rule="evenodd" d="M60.601.666L50.209 8.888V.666h10.392z" fill="#333"/><path d="M34.572 43.964l-3.131-6.062h-16.32l-3.131 6.062H0L23.314.664l23.248 43.3h-11.99zM19.318 29.776h7.927l-3.93-7.594-3.997 7.594z" fill="#333"/></svg>