<svg width="136" height="46" fill="none" xmlns="http://www.w3.org/2000/svg"><path fill-rule="evenodd" clip-rule="evenodd" d="M104.894 26.95l-5.218-8.748c-1.964.472-3.98.686-6 .635l4.586 8.113h6.632zM20.232 13.475c0-4.727-2.963-8.4-8.537-8.4H6.757v16.796h4.939a8.109 8.109 0 008.537-8.4M.901 26.951V0h10.794c8.537 0 14.534 5.362 14.534 13.475S20.301 26.88 11.695 26.88H.901v.071zm30.267 0V0h19.331v5.08H36.953v5.644h13.264V15.8H36.953v6.067h13.546v5.08l-19.331.004zm40.92 0l-8.255-10.794-2.116 2.543v8.255h-5.856V0h5.856v12.064L71.382 0h7.126L67.643 12.629l11.641 14.322h-7.196zm49.174-21.165l-4.233 11.57h8.537l-4.304-11.57zm7.549 21.165l-1.693-4.586h-11.712l-1.693 4.586h-6.632L117.664.071h7.2l10.583 26.88h-6.636z" fill="#333"/><path fill-rule="evenodd" clip-rule="evenodd" d="M88.597 12.347V5.08h6.209c2.328 0 4.021 1.34 4.021 3.6 0 2.187-1.693 3.6-4.021 3.6h-6.209v.067zm16.156-3.669c0-4.727-3.245-8.678-9.172-8.678H82.812v26.88h5.785v-9.524h6.985c5.856 0 9.171-3.951 9.171-8.678zM.901 40.353a5.306 5.306 0 015.362-5.5 4.844 4.844 0 013.88 1.9l-.776.494a3.943 3.943 0 00-3.1-1.552 4.66 4.66 0 000 9.313 3.84 3.84 0 003.1-1.552l.776.494a4.845 4.845 0 01-3.88 1.9 5.264 5.264 0 01-5.362-5.5m21.377.003c0-2.681-1.693-4.656-4.233-4.656-2.61 0-4.233 1.975-4.233 4.656 0 2.68 1.623 4.656 4.233 4.656 2.61.07 4.233-1.975 4.233-4.656zm-9.383 0c0-3.1 2.046-5.5 5.15-5.5 3.104 0 5.15 2.4 5.15 5.5s-2.046 5.5-5.15 5.5c-3.104 0-5.15-2.328-5.15-5.5zm21.871 5.365l-6.7-9.172v9.172h-.849V35.065h.917l6.632 9.03v-9.03h.917v10.653h-.917zm4.586-1.481l.564-.706a4.5 4.5 0 003.316 1.552c2.187 0 2.822-1.2 2.822-2.117 0-3.1-6.42-1.482-6.42-5.221 0-1.764 1.552-2.822 3.528-2.822a4.608 4.608 0 013.6 1.482l-.635.706a3.82 3.82 0 00-3.034-1.34 2.208 2.208 0 00-2.469 1.975c0 2.75 6.35 1.2 6.35 5.22 0 1.34-.917 3.035-3.81 3.035a5.556 5.556 0 01-3.81-1.764m14.179 1.481V35.91h-3.528v-.846h7.9v.847h-3.457v9.807l-.915-.001zm14.04-7.553a2.224 2.224 0 00-2.4-2.258H62.21v4.586h2.963a2.242 2.242 0 002.4-2.328zm0 7.549L64.61 41.34h-2.328v4.374h-.918V35.065h3.951a3.038 3.038 0 013.245 3.1 2.87 2.87 0 01-2.963 3.034l3.1 4.445h-1.129l.005.07zm4.797-4.088v-6.561h.917v6.56c0 2.188 1.129 3.458 3.245 3.458s3.245-1.34 3.245-3.457v-6.561h.917v6.56c0 2.61-1.411 4.3-4.163 4.3-2.752-.07-4.163-1.692-4.163-4.3m12.137-1.272a5.305 5.305 0 015.362-5.5 4.844 4.844 0 013.88 1.9l-.776.494a3.943 3.943 0 00-3.1-1.552 4.661 4.661 0 000 9.313 3.839 3.839 0 003.1-1.552l.776.494a4.844 4.844 0 01-3.88 1.9 5.264 5.264 0 01-5.362-5.5m15.521 5.368V35.91h-3.457v-.846h7.9v.847h-3.528v9.807l-.915-.001z" fill="#333"/><path d="M108.774 35.065h-.917v10.653h.917V35.065z" fill="#333"/><path fill-rule="evenodd" clip-rule="evenodd" d="M122.038 40.353c0-2.681-1.693-4.656-4.233-4.656-2.61 0-4.233 1.975-4.233 4.656 0 2.68 1.623 4.656 4.233 4.656 2.61.07 4.233-1.975 4.233-4.656zm-9.383 0c0-3.1 2.046-5.5 5.15-5.5 3.104 0 5.15 2.4 5.15 5.5s-2.046 5.5-5.15 5.5c-3.104 0-5.15-2.328-5.15-5.5zm21.871 5.365l-6.7-9.172v9.172h-.92V35.065h.917l6.7 9.03v-9.03h.917v10.653h-.914z" fill="#333"/></svg>