<svg width="225" height="46" fill="none" xmlns="http://www.w3.org/2000/svg"><path d="M26.499.308h3.623l-6.441 21.034h-3.12l-5.33-13.687-5.233 13.687h-3.12L.131.308h3.724l4.73 15.5 5.938-15.3h1.409l6.039 15.3 4.528-15.5zm8.454 21.135V.409h3.523v21.034h-3.523zM59.005.308v3.22h-6.24v17.815h-3.522V3.529h-6.24V.308h16.002zm18.017 0h3.523v21.034h-3.523v-9.158H67.36v9.158h-3.522V.308h3.523v8.555h9.662L77.022.308zM97.05 21.745a10.614 10.614 0 01-7.951-3.12 10.171 10.171 0 01-3.12-7.75 10.173 10.173 0 013.12-7.748A11.176 11.176 0 0197.05.006a10.612 10.612 0 017.951 3.12 10.173 10.173 0 013.12 7.749 10.794 10.794 0 01-1.409 5.535 10.5 10.5 0 01-3.925 3.925 10.354 10.354 0 01-5.737 1.41zm-5.435-5.435a7.001 7.001 0 005.435 2.214 7.003 7.003 0 005.435-2.214 7.775 7.775 0 002.214-5.435 7.009 7.009 0 00-2.214-5.435 7.005 7.005 0 00-5.435-2.214 7.518 7.518 0 00-7.649 7.347v.3c0 2.03.795 3.98 2.214 5.433v.004zm30.294 5.435a8.666 8.666 0 01-6.139-2.315 7.74 7.74 0 01-2.415-5.938V.308h3.523V13.29a4.706 4.706 0 001.409 3.724 5.377 5.377 0 007.146 0 5.523 5.523 0 001.409-3.724V.308h3.422v13.184a7.748 7.748 0 01-2.415 5.938 7.334 7.334 0 01-5.94 2.315zM150.791.308v3.22h-6.24v17.815h-3.522V3.529h-6.24V.308h16.002zm25.163 3.322h-8.655v5.938h7.85v3.12h-7.85v8.655h-3.523V.409h12.178v3.22zm18.115 17.812l-1.807-4.634h-9.36l-1.812 4.63h-3.728L185.816.405h3.221l8.655 21.034-3.623.003zm-6.441-16.605l-3.523 8.957h6.944l-3.421-8.957zm14.794 16.606V.409h3.522v21.034h-3.522zm13.788-3.22h8.756v3.22h-12.278V.41h3.522v17.814zM49.299 45.799l-2.617-4.428h-2.616v4.428h-1.409V34.426h4.328a3.273 3.273 0 012.617 1.006 3.34 3.34 0 011.006 2.516 3.16 3.16 0 01-.7 2.113 3.62 3.62 0 01-1.812 1.208l2.717 4.63h-1.51l-.004-.1zm-5.233-10.065v4.227h2.818a2.539 2.539 0 001.711-.6 2.19 2.19 0 000-3.02 2.367 2.367 0 00-1.711-.6h-2.818v-.007zm11.675 8.656h5.233v1.409h-6.642V34.426h6.441v1.308h-5.032v3.522h4.63v1.308h-4.63v3.826zm16.706 1.409l-1.107-2.717h-5.434l-1.107 2.717h-1.51l4.63-11.373h1.308l4.831 11.373h-1.611zm-3.925-9.46l-2.214 5.435h4.428l-2.214-5.435zm12.177-1.913a5.515 5.515 0 015.737 5.737 5.46 5.46 0 01-1.61 4.126 5.613 5.613 0 01-4.126 1.61h-3.825V34.426h3.824zm0 10.064a4.17 4.17 0 003.12-1.208 4.33 4.33 0 001.208-3.12 4.058 4.058 0 00-.6-2.214 3.631 3.631 0 00-1.51-1.51 4.41 4.41 0 00-2.315-.6h-2.318v8.756h2.415v-.104zM97.91 34.426l-4.227 6.844v4.529h-1.51v-4.53l-4.227-6.843h1.61l3.321 5.535 3.422-5.535h1.611zm14.694 0v1.308h-3.522v10.065h-1.409V35.734h-3.523v-1.308h8.454zm11.976 9.863a5.827 5.827 0 01-4.328 1.71 6.005 6.005 0 01-4.328-1.71 6.079 6.079 0 010-8.454 5.827 5.827 0 014.328-1.711 6.003 6.003 0 014.328 1.71 6.079 6.079 0 010 8.455zm-7.548-1.006a4.618 4.618 0 006.441 0c.422-.423.755-.925.979-1.479a4.466 4.466 0 00.329-1.742 4.104 4.104 0 00-1.308-3.221 4.657 4.657 0 00-3.221-1.308 4.107 4.107 0 00-3.221 1.308 4.655 4.655 0 00-1.308 3.22 4.464 4.464 0 001.309 3.222zm31.099-8.857h1.51l-3.623 11.373h-1.308l-3.12-8.152-3.019 8.152h-1.208l-3.725-11.373h1.51l2.818 9.058 3.321-8.857h.6l3.422 8.857 2.822-9.058zm5.937 9.964h5.233v1.409h-6.642V34.426h6.441v1.308h-5.032v3.522h4.63v1.308h-4.63v3.826zm16.707 1.409l-1.107-2.717h-5.535l-1.107 2.717h-1.51l4.63-11.373h1.308l4.831 11.373h-1.51zm-3.824-9.46l-2.214 5.435h4.428l-2.214-5.435zm14.995 9.46l-2.617-4.428h-2.617v4.428h-1.408V34.426h4.328a3.277 3.277 0 012.617 1.006c.334.325.596.718.77 1.15.173.434.253.9.236 1.366a3.158 3.158 0 01-.7 2.113c-.466.579-1.098 1-1.812 1.208l2.717 4.63h-1.51l-.004-.1zm-5.233-10.064v4.227h2.818a2.54 2.54 0 001.711-.6 2.192 2.192 0 000-3.02 2.364 2.364 0 00-1.711-.6h-2.818v-.007z" fill="#333"/></svg>