<svg width="1480" height="193" fill="none" xmlns="http://www.w3.org/2000/svg"><path d="M162.915 188.831l-71.38-95.7 66.621-89.363h-55.253l-57.9 78.782V3.768H.064v185.063h44.943v-83.8l61.862 83.8h56.046zM258.352.336c-54.724 0-96.759 41.506-96.759 95.966 0 54.46 42.035 95.966 96.759 95.966 54.724 0 96.759-41.506 96.759-95.966 0-54.46-42.034-95.966-96.759-95.966zm0 42.828c29.609 0 51.288 22.207 51.288 53.138 0 30.931-21.678 53.138-51.288 53.138-29.61 0-51.288-22.207-51.288-53.138 0-30.931 21.679-53.134 51.288-53.134v-.004zm241.9-39.391v69.265h-71.118V3.768h-44.942v185.063h44.942v-72.963h71.115v72.963h44.943V3.768l-44.94.005zm215.725 0h-145.67v42.828h50.23v142.23h44.947V46.601h50.49l.003-42.828zm135.354 185.058h47.586L831.768 3.768h-56.575l-67.15 185.063h47.586l13.218-38.333h69.265l13.219 38.333zm-67.678-81.163l19.831-57.631 19.824 57.631h-39.655zm303.227 81.163l-71.38-95.7 66.62-89.357h-55.25l-57.898 78.782V3.768h-44.939v185.063h44.943v-83.8l61.864 83.8h56.04zM1245.77 3.768H1100.1v42.828h50.23v142.235h44.95V46.601h50.49V3.768zm106.01 67.683h-35.95V3.768h-44.95v185.063h80.1c39.13 0 63.98-19.828 63.98-58.954 0-39.126-23.26-58.426-63.18-58.426zm83.28-67.678v185.058H1480V3.768l-44.94.005zm-85.92 142.23h-33.31v-32.517h34.1c12.95 0 19.56 3.7 19.56 15.862 0 12.162-7.4 16.655-20.35 16.655z" fill="#F7F7F7"/></svg>