<svg width="216" height="37" fill="none" xmlns="http://www.w3.org/2000/svg"><path d="M.972 28V1.82h4.862V28H.972zM18.986 8.892c5.406 0 9.758 4.114 9.758 9.758 0 5.644-4.284 9.758-9.758 9.758-5.44 0-9.724-4.148-9.724-9.758 0-5.644 4.352-9.758 9.724-9.758zm0 4.624c-2.72 0-4.828 2.074-4.828 5.134 0 3.094 2.108 5.134 4.828 5.134s4.828-2.04 4.828-5.134c0-3.06-2.108-5.134-4.828-5.134zM46.123 9.3h4.862v18.462c0 5.542-3.604 9.146-9.248 9.146-4.522 0-8.772-2.278-9.486-7.174h5.032c.544 2.108 2.312 2.856 4.318 2.856 2.958 0 4.522-1.53 4.522-4.692v-2.686c-1.326 1.768-3.264 2.924-5.882 2.924-4.896 0-8.534-4.012-8.534-9.622 0-5.644 3.706-9.622 8.534-9.622 2.584 0 4.59 1.19 5.882 2.992V9.3zm-4.794 14.212c2.72 0 4.794-2.04 4.794-4.998 0-2.924-2.074-4.998-4.794-4.998-2.72 0-4.726 2.074-4.726 4.998 0 2.924 2.04 4.998 4.726 4.998zM57.308.664c1.768 0 3.026 1.19 3.026 2.856s-1.258 2.89-3.026 2.89c-1.7 0-3.026-1.224-3.026-2.89 0-1.666 1.326-2.856 3.026-2.856zM54.86 28V9.3h4.862V28H54.86zm18.047.408c-5.61 0-9.723-4.216-9.723-9.758 0-5.542 4.114-9.758 9.758-9.758 4.556 0 8.602 2.754 9.316 7.514H77.26c-.579-2.04-2.347-3.026-4.319-3.026-2.957 0-4.862 2.176-4.828 5.27-.034 3.128 1.939 5.27 4.794 5.27 2.007 0 3.775-1.02 4.353-3.06h4.997c-.748 4.93-4.862 7.548-9.35 7.548zm31.263 0c-4.998 0-8.636-2.448-9.316-6.562h4.93c.374 1.496 1.496 2.516 4.522 2.516 2.142 0 3.162-.51 3.162-1.53 0-1.258-1.462-1.36-4.284-2.04-5.304-1.258-7.48-2.448-7.48-5.678 0-3.944 3.264-6.222 8.194-6.222 5.202 0 7.752 2.516 8.398 5.984h-4.93c-.374-1.19-1.394-1.904-3.638-1.904-1.938 0-3.128.544-3.128 1.564 0 .884.85 1.054 3.57 1.666 5.338 1.224 8.33 2.244 8.33 5.984 0 4.182-3.706 6.222-8.33 6.222zm25.391-5.44l.816 3.944c-1.02.68-3.332 1.496-5.576 1.496-3.74 0-7.004-2.244-7.004-7.616V13.89h-3.332V9.3h3.332V5.254l4.862-1.054v5.1h6.936v4.59h-6.936v6.63c0 2.21 1.054 3.366 2.992 3.366 1.088 0 2.38-.374 3.91-.918zM145.825 9.3h4.862V28h-4.862v-2.584c-1.36 1.904-3.196 2.992-5.78 2.992-4.114 0-6.664-2.822-6.664-7.378V9.3h4.862v10.676c0 2.448.918 3.808 3.434 3.808 2.686 0 4.148-1.598 4.148-4.658V9.3zm22.957-7.48h4.862V28h-4.862v-2.516c-1.292 1.768-3.264 2.924-5.882 2.924-4.862 0-8.534-4.012-8.534-9.758 0-5.78 3.706-9.758 8.5-9.758 2.652 0 4.624 1.224 5.916 3.026V1.82zm-4.794 21.964c2.72 0 4.794-2.04 4.794-5.134 0-3.06-2.074-5.134-4.794-5.134-2.72 0-4.726 2.074-4.726 5.134 0 3.094 2.04 5.134 4.726 5.134zM179.96.664c1.768 0 3.026 1.19 3.026 2.856s-1.258 2.89-3.026 2.89c-1.7 0-3.026-1.224-3.026-2.89 0-1.666 1.326-2.856 3.026-2.856zM177.512 28V9.3h4.862V28h-4.862zM195.56 8.892c5.406 0 9.758 4.114 9.758 9.758 0 5.644-4.284 9.758-9.758 9.758-5.44 0-9.724-4.148-9.724-9.758 0-5.644 4.352-9.758 9.724-9.758zm0 4.624c-2.72 0-4.828 2.074-4.828 5.134 0 3.094 2.108 5.134 4.828 5.134s4.828-2.04 4.828-5.134c0-3.06-2.108-5.134-4.828-5.134zm16.536 9.112c1.7 0 3.026 1.224 3.026 2.89 0 1.7-1.326 2.89-3.026 2.89-1.734 0-3.026-1.19-3.026-2.89 0-1.666 1.292-2.89 3.026-2.89z" fill="#2A2B2C"/></svg>