<svg width="1482" height="219" fill="none" xmlns="http://www.w3.org/2000/svg"><path d="M184.276 3.917H.76v210.938h51.228V52.736h81.06v162.119h51.228V3.917zm132.589 0h-90.4v210.938h51.228v-65.089h39.174c44.6 0 75.938-26.819 75.938-73.527s-31.342-72.322-75.94-72.322zm-2.109 97.031h-37.065V52.736h37.065c17.478 0 26.217 8.136 26.217 24.107s-8.74 24.105-26.217 24.105zM527.2 0c-62.377 0-110.29 47.31-110.29 109.386 0 62.076 47.91 109.386 110.29 109.386 62.38 0 110.29-47.31 110.29-109.386C637.49 47.31 589.577 0 527.2 0zm0 48.817c33.75 0 58.46 25.313 58.46 60.569s-24.71 60.569-58.46 60.569-58.46-25.312-58.46-60.569c0-35.257 24.71-60.569 58.46-60.569zm288.683 3.919V3.917H670.637v210.938h145.246v-48.819h-94.018v-33.145h85.58V84.074h-85.58V52.736h94.018zm217.267 162.121L951.787 105.77 1027.72 3.917h-62.98l-65.993 89.8v-89.8H847.52v210.938h51.228V119.33l70.513 95.525 63.889.002zm181.1-210.938h-166.03v48.817h57.25v162.119h51.23V52.736h57.56l-.01-48.817zm120.84 77.141h-40.98V3.917h-51.23v210.938h91.31c44.6 0 72.92-22.6 72.92-67.2s-26.52-66.595-72.02-66.595zm94.92-77.143v210.938h51.23V3.917h-51.23zm-97.93 162.119h-37.97v-37.063h38.87c14.77 0 22.3 4.219 22.3 18.08 0 13.861-8.44 18.983-23.2 18.983z" fill="#F7F7F7"/></svg>