<svg width="1480" height="264" fill="none" xmlns="http://www.w3.org/2000/svg"><path d="M236.728 5.504H168.42l-49.153 100.474L69.031 5.504H0l85.294 167.338-42.647 85.654h68.669L236.728 5.504zm134.808 257.69c62.164 0 109.509-39.033 123.243-93.968H429c-10.12 22.046-30.72 35.419-57.465 35.419-41.924 0-69.03-30.359-69.03-72.645 0-42.286 27.106-72.645 69.03-72.645 26.745 0 47.346 13.372 57.465 35.419h65.778C481.045 39.842 433.7.806 371.536.806c-75.9 0-131.194 56.742-131.194 131.194s55.297 131.194 131.194 131.194zm214.32-257.69l-26.745 168.782c-3.976 24.938-11.2 31.8-27.829 31.8-5.06 0-9.4-.723-14.818-1.446v55.3a142.831 142.831 0 0027.829 3.253c38.31 0 65.778-24.215 75.175-82.764L637.9 64.054h55.658v194.442H755V5.504H585.856zm442.014 0h-68.31l-49.152 100.474L860.171 5.504H791.14l85.294 167.338-42.647 85.656h68.669L1027.87 5.504zm198.42 0H1062.2v252.992h61.44V64.054h102.64l.01-58.55zm183.96 0l-94.69 159.385 4.7-53.49V5.504h-61.45v252.992h69.76l95.05-159.385-5.06 53.49v105.895H1480V5.504h-69.75z" fill="#F7F7F7"/></svg>